<svg width="1600" height="520" viewBox="0 0 1600 520" fill="none" xmlns="http://www.w3.org/2000/svg">
  <defs>
    <linearGradient id="bg" x1="120" y1="40" x2="1480" y2="500" gradientUnits="userSpaceOnUse">
      <stop stop-color="#2B2E33"/>
      <stop offset="0.5" stop-color="#34363C"/>
      <stop offset="1" stop-color="#41342E"/>
    </linearGradient>
    <linearGradient id="cardFill" x1="0" y1="0" x2="1" y2="1">
      <stop stop-color="#FFF4E8" stop-opacity="0.14"/>
      <stop offset="1" stop-color="#FFF4E8" stop-opacity="0.05"/>
    </linearGradient>
  </defs>
  <rect width="1600" height="520" rx="24" fill="url(#bg)"/>

  <g opacity="0.95">
    <g transform="translate(84 118)">
      <rect x="0" y="0" width="340" height="148" rx="18" fill="url(#cardFill)" stroke="#FFF2E6" stroke-opacity="0.12"/>
      <circle cx="0" cy="74" r="16" fill="#34363C"/>
      <circle cx="340" cy="74" r="16" fill="#34363C"/>
      <path d="M56 74H286" stroke="#FFF2E6" stroke-opacity="0.18" stroke-width="2" stroke-dasharray="8 10"/>
      <rect x="56" y="38" width="120" height="12" rx="6" fill="#FFF2E6" fill-opacity="0.12"/>
      <rect x="56" y="98" width="154" height="8" rx="4" fill="#FFF2E6" fill-opacity="0.08"/>
      <rect x="56" y="116" width="92" height="8" rx="4" fill="#FFF2E6" fill-opacity="0.08"/>
    </g>

    <g transform="translate(470 82)">
      <rect x="0" y="0" width="420" height="182" rx="20" fill="url(#cardFill)" stroke="#FFF2E6" stroke-opacity="0.12"/>
      <circle cx="0" cy="91" r="18" fill="#34363C"/>
      <circle cx="420" cy="91" r="18" fill="#34363C"/>
      <path d="M68 91H352" stroke="#FFF2E6" stroke-opacity="0.18" stroke-width="2" stroke-dasharray="8 10"/>
      <rect x="68" y="46" width="154" height="14" rx="7" fill="#FFF2E6" fill-opacity="0.12"/>
      <rect x="68" y="126" width="206" height="10" rx="5" fill="#FFF2E6" fill-opacity="0.08"/>
      <rect x="294" y="38" width="90" height="90" rx="45" fill="#FFF2E6" fill-opacity="0.07"/>
      <path d="M318 98L360 56" stroke="#FFF2E6" stroke-opacity="0.28" stroke-width="8" stroke-linecap="round"/>
      <path d="M314 64H364" stroke="#FFF2E6" stroke-opacity="0.28" stroke-width="8" stroke-linecap="round"/>
    </g>

    <g transform="translate(958 138)">
      <rect x="0" y="0" width="360" height="156" rx="18" fill="url(#cardFill)" stroke="#FFF2E6" stroke-opacity="0.12"/>
      <circle cx="0" cy="78" r="16" fill="#34363C"/>
      <circle cx="360" cy="78" r="16" fill="#34363C"/>
      <path d="M58 78H302" stroke="#FFF2E6" stroke-opacity="0.18" stroke-width="2" stroke-dasharray="8 10"/>
      <rect x="58" y="42" width="140" height="12" rx="6" fill="#FFF2E6" fill-opacity="0.12"/>
      <rect x="58" y="104" width="182" height="8" rx="4" fill="#FFF2E6" fill-opacity="0.08"/>
      <rect x="58" y="122" width="120" height="8" rx="4" fill="#FFF2E6" fill-opacity="0.08"/>
    </g>
  </g>
</svg>
