<svg width="1600" height="520" viewBox="0 0 1600 520" fill="none" xmlns="http://www.w3.org/2000/svg">
  <defs>
    <linearGradient id="bg" x1="90" y1="36" x2="1494" y2="502" gradientUnits="userSpaceOnUse">
      <stop stop-color="#292D33"/>
      <stop offset="0.52" stop-color="#34383E"/>
      <stop offset="1" stop-color="#41342E"/>
    </linearGradient>
    <linearGradient id="pathA" x1="184" y1="310" x2="638" y2="140" gradientUnits="userSpaceOnUse">
      <stop stop-color="#FFE4CA" stop-opacity="0"/>
      <stop offset="0.5" stop-color="#FFC18C" stop-opacity="0.16"/>
      <stop offset="1" stop-color="#FFE4CA" stop-opacity="0"/>
    </linearGradient>
    <linearGradient id="pathB" x1="962" y1="132" x2="1414" y2="310" gradientUnits="userSpaceOnUse">
      <stop stop-color="#FFE4CA" stop-opacity="0"/>
      <stop offset="0.5" stop-color="#FFC18C" stop-opacity="0.18"/>
      <stop offset="1" stop-color="#FFE4CA" stop-opacity="0"/>
    </linearGradient>
  </defs>
  <rect width="1600" height="520" rx="24" fill="url(#bg)"/>

  <path d="M128 314C248 314 326 278 410 216C500 150 586 118 690 118C790 118 868 154 950 208C1040 268 1128 304 1266 304" stroke="url(#pathA)" stroke-width="76" stroke-linecap="round"/>
  <path d="M310 180C410 144 498 146 586 188C678 232 752 286 858 286C964 286 1040 230 1128 182C1216 134 1308 132 1442 174" stroke="url(#pathB)" stroke-width="68" stroke-linecap="round"/>

  <g opacity="0.92">
    <circle cx="350" cy="164" r="40" fill="#FFF4E8" fill-opacity="0.08"/>
    <path d="M332 182L368 146" stroke="#FFF4E8" stroke-opacity="0.3" stroke-width="7" stroke-linecap="round"/>
    <path d="M328 152H372" stroke="#FFF4E8" stroke-opacity="0.3" stroke-width="7" stroke-linecap="round"/>

    <circle cx="1248" cy="330" r="40" fill="#FFF4E8" fill-opacity="0.08"/>
    <path d="M1230 348L1266 312" stroke="#FFF4E8" stroke-opacity="0.3" stroke-width="7" stroke-linecap="round"/>
    <path d="M1226 318H1270" stroke="#FFF4E8" stroke-opacity="0.3" stroke-width="7" stroke-linecap="round"/>
  </g>

  <g stroke="#FFF2E6" stroke-opacity="0.1" stroke-width="2">
    <path d="M688 132L752 168"/>
    <path d="M820 286L884 250"/>
    <path d="M986 194L1048 230"/>
  </g>
</svg>
