<svg width="1600" height="520" viewBox="0 0 1600 520" fill="none" xmlns="http://www.w3.org/2000/svg">
  <defs>
    <linearGradient id="bg" x1="92" y1="36" x2="1494" y2="500" gradientUnits="userSpaceOnUse">
      <stop stop-color="#292D33"/>
      <stop offset="0.52" stop-color="#34383E"/>
      <stop offset="1" stop-color="#42352F"/>
    </linearGradient>
    <linearGradient id="tile" x1="0" y1="0" x2="1" y2="1">
      <stop stop-color="#FFF4E8" stop-opacity="0.14"/>
      <stop offset="1" stop-color="#FFF4E8" stop-opacity="0.05"/>
    </linearGradient>
  </defs>
  <rect width="1600" height="520" rx="24" fill="url(#bg)"/>

  <g opacity="0.96">
    <g transform="translate(170 92)">
      <rect width="248" height="118" rx="16" fill="url(#tile)" stroke="#FFF2E6" stroke-opacity="0.1"/>
      <circle cx="248" cy="59" r="14" fill="#34383E"/>
      <path d="M36 48H132" stroke="#FFF2E6" stroke-opacity="0.12" stroke-width="8" stroke-linecap="round"/>
      <path d="M36 80H164" stroke="#FFF2E6" stroke-opacity="0.08" stroke-width="7" stroke-linecap="round"/>
      <path d="M176 30V88" stroke="#FFF2E6" stroke-opacity="0.14" stroke-width="2" stroke-dasharray="6 8"/>
    </g>

    <g transform="translate(474 68)">
      <rect width="308" height="146" rx="18" fill="url(#tile)" stroke="#FFF2E6" stroke-opacity="0.1"/>
      <circle cx="308" cy="73" r="16" fill="#34383E"/>
      <path d="M42 58H160" stroke="#FFF2E6" stroke-opacity="0.12" stroke-width="9" stroke-linecap="round"/>
      <path d="M42 96H192" stroke="#FFF2E6" stroke-opacity="0.08" stroke-width="8" stroke-linecap="round"/>
      <path d="M214 38V108" stroke="#FFF2E6" stroke-opacity="0.14" stroke-width="2" stroke-dasharray="6 8"/>
      <circle cx="244" cy="54" r="28" fill="#FFF2E6" fill-opacity="0.07"/>
      <path d="M232 66L256 42" stroke="#FFF2E6" stroke-opacity="0.28" stroke-width="6" stroke-linecap="round"/>
      <path d="M228 46H260" stroke="#FFF2E6" stroke-opacity="0.28" stroke-width="6" stroke-linecap="round"/>
    </g>

    <g transform="translate(842 96)">
      <rect width="248" height="118" rx="16" fill="url(#tile)" stroke="#FFF2E6" stroke-opacity="0.1"/>
      <circle cx="0" cy="59" r="14" fill="#34383E"/>
      <path d="M58 48H154" stroke="#FFF2E6" stroke-opacity="0.12" stroke-width="8" stroke-linecap="round"/>
      <path d="M58 80H186" stroke="#FFF2E6" stroke-opacity="0.08" stroke-width="7" stroke-linecap="round"/>
      <path d="M42 30V88" stroke="#FFF2E6" stroke-opacity="0.14" stroke-width="2" stroke-dasharray="6 8"/>
    </g>

    <g transform="translate(1146 68)">
      <rect width="284" height="146" rx="18" fill="url(#tile)" stroke="#FFF2E6" stroke-opacity="0.1"/>
      <circle cx="0" cy="73" r="16" fill="#34383E"/>
      <path d="M60 58H176" stroke="#FFF2E6" stroke-opacity="0.12" stroke-width="9" stroke-linecap="round"/>
      <path d="M60 96H208" stroke="#FFF2E6" stroke-opacity="0.08" stroke-width="8" stroke-linecap="round"/>
      <path d="M44 38V108" stroke="#FFF2E6" stroke-opacity="0.14" stroke-width="2" stroke-dasharray="6 8"/>
    </g>

    <g transform="translate(322 278)">
      <rect width="248" height="118" rx="16" fill="#FFF4E8" fill-opacity="0.05" stroke="#FFF2E6" stroke-opacity="0.08"/>
      <circle cx="248" cy="59" r="14" fill="#34383E"/>
      <path d="M36 48H132" stroke="#FFF2E6" stroke-opacity="0.12" stroke-width="8" stroke-linecap="round"/>
      <path d="M36 80H164" stroke="#FFF2E6" stroke-opacity="0.08" stroke-width="7" stroke-linecap="round"/>
    </g>

    <g transform="translate(626 252)">
      <rect width="332" height="146" rx="18" fill="#FFF4E8" fill-opacity="0.05" stroke="#FFF2E6" stroke-opacity="0.08"/>
      <circle cx="0" cy="73" r="16" fill="#34383E"/>
      <path d="M60 58H178" stroke="#FFF2E6" stroke-opacity="0.12" stroke-width="9" stroke-linecap="round"/>
      <path d="M60 96H220" stroke="#FFF2E6" stroke-opacity="0.08" stroke-width="8" stroke-linecap="round"/>
      <path d="M44 38V108" stroke="#FFF2E6" stroke-opacity="0.14" stroke-width="2" stroke-dasharray="6 8"/>
    </g>
  </g>
</svg>
