<svg xmlns="http://www.w3.org/2000/svg" width="1600" height="620" viewBox="0 0 1600 620" role="img" aria-label="Dark voucher banner">
  <defs>
    <linearGradient id="bg" x1="0" y1="0" x2="1" y2="1">
      <stop offset="0" stop-color="#111827"/>
      <stop offset="0.55" stop-color="#2f2a26"/>
      <stop offset="1" stop-color="#9a4f25"/>
    </linearGradient>
    <linearGradient id="card" x1="0" y1="0" x2="1" y2="1">
      <stop offset="0" stop-color="#fff7ed"/>
      <stop offset="1" stop-color="#f7c59a"/>
    </linearGradient>
    <filter id="shadow" x="-20%" y="-25%" width="140%" height="150%">
      <feDropShadow dx="0" dy="20" stdDeviation="20" flood-color="#000" flood-opacity="0.32"/>
    </filter>
  </defs>
  <rect width="1600" height="620" fill="url(#bg)"/>
  <path d="M760 0h840v620H870c160-150 216-286 168-408C1002 122 902 58 760 0Z" fill="#e5702a" opacity="0.16"/>
  <g opacity="0.12" stroke="#fff" stroke-width="2">
    <path d="M1030 0v620"/>
    <path d="M1160 0v620"/>
    <path d="M1290 0v620"/>
    <path d="M1420 0v620"/>
  </g>
  <g filter="url(#shadow)">
    <path d="M1020 150h390c0 34 28 62 62 62v196c-34 0-62 28-62 62h-390c0-34-28-62-62-62V212c34 0 62-28 62-62Z" fill="url(#card)" opacity="0.92"/>
    <path d="M1072 236h190M1072 292h144M1072 348h204" stroke="#3f2b22" stroke-width="12" stroke-linecap="round" opacity="0.36"/>
    <path d="M1326 204v214" stroke="#3f2b22" stroke-width="4" stroke-dasharray="10 14" opacity="0.24"/>
    <rect x="1364" y="256" width="68" height="108" rx="12" fill="#e5702a" opacity="0.86"/>
    <path d="M1382 334l34-58" stroke="#fff" stroke-width="9" stroke-linecap="round"/>
  </g>
  <g fill="#fff" opacity="0.16">
    <circle cx="196" cy="132" r="3"/>
    <circle cx="318" cy="214" r="5"/>
    <circle cx="524" cy="92" r="4"/>
    <circle cx="672" cy="420" r="6"/>
  </g>
</svg>
