<svg xmlns="http://www.w3.org/2000/svg" width="1600" height="620" viewBox="0 0 1600 620" role="img" aria-label="Soft wave banner">
  <defs>
    <linearGradient id="bg" x1="0" y1="0" x2="1" y2="1">
      <stop offset="0" stop-color="#2a211c"/>
      <stop offset="0.5" stop-color="#7c4630"/>
      <stop offset="1" stop-color="#f08a3c"/>
    </linearGradient>
    <linearGradient id="wave" x1="0" y1="0" x2="1" y2="0">
      <stop offset="0" stop-color="#fff" stop-opacity="0.04"/>
      <stop offset="0.5" stop-color="#fff" stop-opacity="0.2"/>
      <stop offset="1" stop-color="#fff" stop-opacity="0.03"/>
    </linearGradient>
  </defs>
  <rect width="1600" height="620" fill="url(#bg)"/>
  <path d="M0 402C196 344 310 334 492 384C696 440 814 482 1048 386C1257 300 1404 315 1600 390V620H0Z" fill="#1f2937" opacity="0.22"/>
  <path d="M0 286C208 176 389 202 564 290C748 383 923 414 1118 294C1280 194 1450 174 1600 238V410C1426 336 1290 350 1110 450C908 562 690 505 502 424C311 342 190 378 0 488Z" fill="url(#wave)"/>
  <path d="M1065 170c74-48 172-44 242 9 80 60 109 166 71 258" fill="none" stroke="#fff" stroke-width="22" stroke-linecap="round" opacity="0.1"/>
  <path d="M1108 222c46-30 108-27 151 6 49 37 67 101 43 158" fill="none" stroke="#fff" stroke-width="16" stroke-linecap="round" opacity="0.17"/>
  <g transform="translate(1236 212)" opacity="0.78">
    <circle cx="0" cy="0" r="78" fill="#fff7ed" opacity="0.88"/>
    <path d="M-32 30L32-34" stroke="#e5702a" stroke-width="12" stroke-linecap="round"/>
    <circle cx="-26" cy="-24" r="12" fill="#e5702a"/>
    <circle cx="28" cy="30" r="12" fill="#e5702a"/>
  </g>
</svg>
