<svg xmlns="http://www.w3.org/2000/svg" width="1600" height="620" viewBox="0 0 1600 620" role="img" aria-label="Ticket grid banner">
  <defs>
    <linearGradient id="bg" x1="0" y1="0" x2="1" y2="0.8">
      <stop offset="0" stop-color="#151515"/>
      <stop offset="0.56" stop-color="#35302b"/>
      <stop offset="1" stop-color="#d76d2d"/>
    </linearGradient>
    <pattern id="grid" width="74" height="74" patternUnits="userSpaceOnUse">
      <path d="M74 0H0v74" fill="none" stroke="#fff" stroke-opacity="0.08" stroke-width="1"/>
    </pattern>
    <filter id="soft" x="-20%" y="-20%" width="140%" height="140%">
      <feGaussianBlur stdDeviation="18"/>
    </filter>
  </defs>
  <rect width="1600" height="620" fill="url(#bg)"/>
  <rect width="1600" height="620" fill="url(#grid)"/>
  <circle cx="1364" cy="128" r="210" fill="#ffb36f" opacity="0.25" filter="url(#soft)"/>
  <circle cx="1168" cy="530" r="240" fill="#e5702a" opacity="0.2" filter="url(#soft)"/>
  <g transform="translate(930 118) rotate(-8)" opacity="0.85">
    <path d="M70 0h350c0 32 26 58 58 58v98c-32 0-58 26-58 58H70c0-32-26-58-58-58V58C44 58 70 32 70 0Z" fill="#fff7ed" opacity="0.88"/>
    <path d="M96 70h176M96 116h138" stroke="#8c4a28" stroke-width="10" stroke-linecap="round" opacity="0.42"/>
    <path d="M330 42v132" stroke="#8c4a28" stroke-width="3" stroke-dasharray="8 12" opacity="0.36"/>
    <path d="M365 88h72M365 126h48" stroke="#e5702a" stroke-width="8" stroke-linecap="round" opacity="0.8"/>
  </g>
  <g transform="translate(1128 330) rotate(10)" opacity="0.72">
    <path d="M52 0h260c0 24 20 44 44 44v84c-24 0-44 20-44 44H52c0-24-20-44-44-44V44C32 44 52 24 52 0Z" fill="#fff" opacity="0.62"/>
    <path d="M78 58h112M78 98h154" stroke="#2b211b" stroke-width="8" stroke-linecap="round" opacity="0.28"/>
  </g>
</svg>
